<?xml version="1.0" encoding="UTF-8"?>
<svg width="12px" height="12px" viewBox="0 0 12 12" version="1.1" xmlns="http://www.w3.org/2000/svg" xmlns:xlink="http://www.w3.org/1999/xlink">
    <!-- Generator: Sketch 52.6 (67491) - http://www.bohemiancoding.com/sketch -->
    <title></title>
    <desc>Created with Sketch.</desc>
    <g id="Page-1" stroke="none" stroke-width="1" fill="none" fill-rule="evenodd">
        <g id="Privacy-token" transform="translate(-171.000000, -193.000000)" fill="#2C4CF5">
            <path d="M182.75,198.25 C182.8125,198.25 182.869791,198.276041 182.921875,198.328125 C182.973959,198.380209 183,198.4375 183,198.5 L183,199.5 C183,199.5625 182.973959,199.619791 182.921875,199.671875 C182.869791,199.723959 182.8125,199.75 182.75,199.75 L177.75,199.75 L177.75,204.75 C177.75,204.8125 177.723959,204.869791 177.671875,204.921875 C177.619791,204.973959 177.5625,205 177.5,205 L176.5,205 C176.4375,205 176.380209,204.973959 176.328125,204.921875 C176.276041,204.869791 176.25,204.8125 176.25,204.75 L176.25,199.75 L171.25,199.75 C171.1875,199.75 171.130209,199.723959 171.078125,199.671875 C171.026041,199.619791 171,199.5625 171,199.5 L171,198.5 C171,198.4375 171.026041,198.380209 171.078125,198.328125 C171.130209,198.276041 171.1875,198.25 171.25,198.25 L176.25,198.25 L176.25,193.25 C176.25,193.1875 176.276041,193.130209 176.328125,193.078125 C176.380209,193.026041 176.4375,193 176.5,193 L177.5,193 C177.5625,193 177.619791,193.026041 177.671875,193.078125 C177.723959,193.130209 177.75,193.1875 177.75,193.25 L177.75,198.25 L182.75,198.25 Z" id=""></path>
        </g>
    </g>
</svg>