<?xml version="1.0" encoding="UTF-8"?>
<svg width="16px" height="16px" viewBox="0 0 16 16" version="1.1" xmlns="http://www.w3.org/2000/svg" xmlns:xlink="http://www.w3.org/1999/xlink">
    <!-- Generator: Sketch 52.6 (67491) - http://www.bohemiancoding.com/sketch -->
    <title></title>
    <desc>Created with Sketch.</desc>
    <g id="Page-1" stroke="none" stroke-width="1" fill="none" fill-rule="evenodd">
        <g id="Privacy-token" transform="translate(-169.000000, -218.000000)" fill="#2C4CF5">
            <path d="M184.5625,221.0625 C184.854168,221.354168 185,221.708331 185,222.125 L185,232.5 C185,232.916669 184.854168,233.270832 184.5625,233.5625 C184.270832,233.854168 183.916669,234 183.5,234 L174.5,234 C174.083331,234 173.729168,233.854168 173.4375,233.5625 C173.145832,233.270832 173,232.916669 173,232.5 L173,229 L174,229 L174,232.5 C174,232.645834 174.046875,232.765625 174.140625,232.859375 C174.234375,232.953125 174.354166,233 174.5,233 L183.5,233 C183.645834,233 183.765625,232.953125 183.859375,232.859375 C183.953125,232.765625 184,232.645834 184,232.5 L184,223 L180.75,223 C180.541666,223 180.364584,222.927084 180.21875,222.78125 C180.072916,222.635416 180,222.458334 180,222.25 L180,219 L174.5,219 C174.354166,219 174.234375,219.046875 174.140625,219.140625 C174.046875,219.234375 174,219.354166 174,219.5 L174,227 L177,227 L177,225.34375 C177,225.177083 177.046875,225.026042 177.140625,224.890625 C177.234375,224.755208 177.364583,224.651042 177.53125,224.578125 C177.697917,224.505208 177.864583,224.484375 178.03125,224.515625 C178.197917,224.546875 178.354166,224.624999 178.5,224.75 L180.71875,226.875 C180.906251,227.041667 181,227.249999 181,227.5 C181,227.750001 180.906251,227.958333 180.71875,228.125 L178.5,230.25 C178.395833,230.354167 178.270834,230.427083 178.125,230.46875 C177.916666,230.53125 177.718751,230.520834 177.53125,230.4375 C177.364583,230.354166 177.234375,230.244792 177.140625,230.109375 C177.046875,229.973958 177,229.822917 177,229.65625 L177,228 L169.25,228 C169.1875,228 169.130209,227.973959 169.078125,227.921875 C169.026041,227.869791 169,227.8125 169,227.75 L169,227.25 C169,227.1875 169.026041,227.130209 169.078125,227.078125 C169.130209,227.026041 169.1875,227 169.25,227 L173,227 L173,219.5 C173,219.083331 173.145832,218.729168 173.4375,218.4375 C173.729168,218.145832 174.083331,218 174.5,218 L180.875,218 C181.291669,218 181.645832,218.145832 181.9375,218.4375 L184.5625,221.0625 Z M178,225.65625 L178,229.34375 L179.9375,227.5 L178,225.65625 Z M181,222 L184,222 C183.958333,221.916666 183.90625,221.84375 183.84375,221.78125 L181.21875,219.15625 C181.15625,219.09375 181.083334,219.052083 181,219.03125 L181,222 Z" id=""></path>
        </g>
    </g>
</svg>